# xmcd
# Copyright (C) 1995-1998 Ti Kan
#
# Track frame offsets:
#       150
#       15975
#       31235
#       47510
#       64085
#       78935
#       98660
#       117485
#       133985
#       150260
#       162260
#       180710
#       195635
#       211910
#       227135
#       244460
#       261935
#       279185
#       292460
#
# Disc length: 4126 seconds
#
# Revision: 18
# Processed by: cddbd v1.5.2PL0 Copyright (c) Steve Scherf et al.
# Submitted via: CD-Transfer v1.0
#
DISCID=09101c13
DTITLE=Major Static Feat. Lil' Wayne - 
DYEAR=2008
DGENRE=
TTITLE0=Slow Slow (Run Run)
TTITLE1=Runaway
TTITLE2=Dreaming' Of You Single Edit)
TTITLE3=Ride (Dj Tiesto Radio Edit)
TTITLE4=C'est Ma Terre (Comme A La Maison)
TTITLE5=Dance Wiv Me (Club Mix)
TTITLE6=Ancree A Ton Port
TTITLE7=Honey (Album Version)
TTITLE8=Just Dance (Trevor Simpson Edit)
TTITLE9=Got Money (Uk Radio Edit)
TTITLE10=Paper Planes (Scottie B. Remix)
TTITLE11=La Vida Tombola
TTITLE12=So What
TTITLE13=Gettin Up
TTITLE14=Take A Bow (Grove Junkies Moho Radio)
TTITLE15=What You Look For
TTITLE16=Carmen
TTITLE17=Baditude (Radio Edit)
TTITLE18=I Got My
EXTD=
EXTT0=
EXTT1=
EXTT2=
EXTT3=
EXTT4=
EXTT5=
EXTT6=
EXTT7=
EXTT8=
EXTT9=
EXTT10=
EXTT11=
EXTT12=
EXTT13=
EXTT14=
EXTT15=
EXTT16=
EXTT17=
EXTT18=
PLAYORDER=
